<?xml version="1.0" standalone="no"?>
<!DOCTYPE svg PUBLIC "-//W3C//DTD SVG 20010904//EN"
 "http://www.w3.org/TR/2001/REC-SVG-20010904/DTD/svg10.dtd">
<svg version="1.0" xmlns="http://www.w3.org/2000/svg"
 width="1280.000000pt" height="1254.000000pt" viewBox="0 0 1280.000000 1254.000000"
 preserveAspectRatio="xMidYMid meet">
<metadata>
Created by potrace 1.15, written by Peter Selinger 2001-2017
</metadata>
<g transform="translate(0.000000,1254.000000) scale(0.100000,-0.100000)"
fill="#000000" stroke="none">
<path d="M6067 12529 c-1844 -95 -3569 -973 -4700 -2393 -780 -977 -1224
-2085 -1343 -3351 -24 -246 -24 -780 0 -1030 86 -925 351 -1775 796 -2550
1007 -1753 2787 -2917 4830 -3159 470 -56 1030 -56 1500 0 1702 202 3239 1048
4283 2358 776 972 1226 2092 1343 3347 23 245 23 791 0 1034 -120 1266 -563
2374 -1343 3351 -1275 1600 -3294 2501 -5366 2393z m903 -413 c342 -36 797
-116 995 -177 17 -5 80 -23 140 -40 215 -60 566 -185 740 -263 28 -13 70 -31
94 -42 55 -23 301 -147 396 -199 156 -85 538 -326 600 -377 5 -5 35 -26 65
-48 30 -22 60 -43 65 -47 6 -5 30 -24 55 -43 25 -19 47 -37 50 -40 3 -3 21
-17 42 -32 20 -15 42 -33 50 -40 7 -7 38 -33 68 -58 30 -24 62 -51 70 -60 8
-8 58 -53 110 -100 160 -144 372 -364 500 -520 25 -30 48 -58 52 -61 5 -3 19
-21 33 -40 35 -46 76 -98 98 -120 9 -11 17 -22 17 -25 0 -3 6 -11 13 -19 28
-30 47 -56 47 -65 0 -6 3 -10 8 -10 4 -1 23 -25 42 -55 19 -30 38 -55 43 -55
4 0 7 -5 7 -10 0 -10 96 -159 110 -170 6 -5 77 -123 163 -270 105 -180 255
-493 349 -730 135 -339 283 -863 318 -1133 5 -40 16 -116 25 -169 26 -170 37
-356 36 -598 0 -129 -3 -264 -5 -300 -10 -137 -53 -451 -75 -555 -5 -22 -14
-62 -20 -90 -16 -77 -68 -283 -89 -355 -26 -87 -92 -290 -103 -315 -5 -11 -19
-49 -32 -85 -30 -79 -60 -148 -139 -310 -33 -69 -68 -140 -77 -159 -9 -19 -26
-45 -38 -57 -12 -12 -19 -25 -16 -28 4 -3 1 -6 -6 -6 -7 0 -9 -4 -6 -10 3 -5
1 -10 -5 -10 -6 0 -8 -4 -5 -10 3 -5 -2 -10 -12 -10 -15 0 -16 -2 -3 -10 13
-8 12 -10 -3 -10 -10 0 -15 -4 -12 -10 3 -5 1 -10 -5 -10 -6 0 -8 -4 -5 -10 3
-5 -1 -10 -10 -10 -9 0 -14 -4 -11 -9 6 -9 -31 -56 -44 -56 -5 0 -18 -10 -30
-22 -11 -13 -18 -23 -15 -23 2 0 -3 -9 -12 -19 -9 -11 -22 -17 -29 -14 -8 3
-14 0 -14 -6 0 -7 -7 -11 -16 -9 -10 2 -19 -4 -21 -12 -4 -13 -3 -13 6 0 9 13
11 13 11 -2 0 -20 -8 -22 -30 -8 -11 7 -19 4 -31 -11 -13 -18 -18 -19 -30 -7
-14 12 -22 15 -62 23 -9 2 -21 6 -26 10 -5 3 -13 0 -16 -5 -5 -7 -11 -5 -19 6
-12 15 -13 15 -29 -1 -9 -9 -17 -13 -17 -8 0 5 -9 9 -20 9 -11 0 -20 -5 -20
-11 0 -6 -8 -11 -17 -12 -41 -3 -58 -9 -66 -20 -4 -7 -17 -13 -27 -13 -11 0
-20 -4 -20 -10 0 -5 -9 -10 -20 -10 -11 0 -29 -9 -40 -20 -12 -12 -24 -18 -29
-16 -4 3 -19 -6 -31 -19 -13 -14 -28 -25 -33 -25 -5 0 -39 -22 -76 -49 -36
-27 -80 -56 -98 -65 -17 -8 -40 -26 -50 -39 -10 -13 -30 -30 -43 -37 -14 -7
-27 -16 -30 -20 -3 -4 -36 -28 -75 -54 -110 -74 -195 -135 -212 -151 -8 -8
-17 -15 -21 -15 -4 0 -29 -20 -57 -45 -27 -24 -53 -45 -56 -45 -4 0 -55 -33
-115 -73 -60 -39 -152 -98 -204 -131 -52 -32 -113 -70 -135 -84 -22 -15 -53
-33 -70 -42 -16 -9 -48 -27 -70 -39 -65 -38 -184 -104 -280 -158 -96 -53 -342
-173 -353 -173 -4 0 83 47 193 103 288 148 460 250 685 405 493 340 963 800
1291 1262 81 114 92 130 87 130 -2 0 -40 -49 -84 -110 -43 -60 -82 -109 -85
-110 -3 0 -100 -93 -215 -208 -115 -114 -237 -231 -272 -260 -35 -28 -60 -52
-56 -52 5 0 -6 -10 -23 -23 -17 -12 -63 -51 -103 -87 -40 -36 -78 -70 -84 -75
-6 -6 -54 -42 -106 -81 -52 -40 -106 -82 -120 -94 -14 -12 -45 -36 -70 -53
-25 -17 -47 -34 -50 -37 -3 -4 -16 -13 -29 -20 -14 -7 -30 -17 -35 -21 -15
-13 -71 -49 -143 -92 -34 -21 -63 -41 -65 -45 -2 -5 -48 -34 -103 -67 -55 -32
-116 -68 -135 -80 -19 -12 -48 -30 -65 -41 -41 -25 -297 -153 -365 -182 -30
-13 -62 -29 -70 -36 -8 -7 -67 -34 -130 -60 -63 -26 -142 -60 -175 -76 -236
-109 -820 -279 -1135 -329 -347 -55 -970 -80 -1549 -62 -434 14 -823 48 -911
80 -14 5 -54 15 -90 21 -122 23 -246 54 -430 106 -97 28 -324 105 -365 124
-22 10 -78 33 -125 51 -47 17 -143 59 -215 91 -71 33 -146 67 -165 75 -81 36
-336 165 -350 177 -8 8 -42 28 -75 45 -93 48 -148 80 -154 88 -3 5 -40 28 -81
52 -133 78 -307 194 -410 274 -9 7 -45 32 -80 57 -36 24 -70 49 -77 55 -6 5
-39 33 -74 60 -34 28 -81 67 -103 88 -23 21 -61 53 -86 70 -25 17 -65 50 -90
73 -25 22 -71 63 -102 90 -31 27 -57 54 -57 59 -1 6 -31 33 -68 60 -71 53
-109 91 -193 195 -53 66 -96 112 -73 80 5 -8 48 -62 94 -120 488 -612 1135
-1121 1904 -1496 94 -46 165 -84 159 -84 -12 0 -472 229 -574 286 -36 19 -90
49 -120 66 -30 16 -61 35 -68 40 -6 6 -12 7 -12 4 0 -4 -15 4 -33 18 -19 15
-39 26 -45 26 -6 0 -12 3 -14 8 -1 4 -28 20 -58 36 -63 34 -97 56 -195 125
-68 48 -125 84 -155 98 -8 4 -39 24 -69 45 -30 21 -60 38 -67 38 -7 0 -14 4
-16 8 -1 4 -24 20 -49 34 -25 15 -65 43 -88 63 -24 19 -48 35 -53 35 -6 0 -36
17 -67 38 -31 20 -74 46 -96 57 -22 11 -44 26 -48 33 -4 6 -19 12 -33 12 -13
0 -27 7 -30 15 -4 8 -17 15 -30 15 -12 0 -27 6 -31 13 -4 6 -14 12 -20 13 -7
1 -21 2 -31 3 -10 0 -28 10 -39 21 -15 14 -23 16 -27 7 -3 -9 -7 -8 -15 3 -10
13 -11 13 -11 0 0 -13 -1 -13 -10 0 -9 13 -10 13 -10 0 0 -13 -1 -13 -10 0 -5
8 -10 11 -10 5 0 -5 -5 -3 -10 5 -8 13 -10 12 -10 -3 0 -17 -20 -19 -32 -3 -3
5 -20 10 -36 11 -23 1 -29 -2 -24 -13 4 -11 2 -13 -9 -6 -22 13 -38 13 -33 -1
8 -19 -23 -26 -38 -7 -8 10 -8 13 -1 9 6 -4 14 -3 18 3 3 5 -2 11 -12 11 -96
6 -127 19 -148 59 -10 19 -22 30 -30 27 -9 -4 -11 1 -8 14 3 11 0 19 -6 19 -7
0 -9 -6 -5 -13 4 -6 -4 -1 -18 13 -13 14 -24 27 -24 30 1 7 -57 84 -67 88 -4
2 -5 8 -1 13 3 5 0 9 -5 9 -6 0 -11 5 -11 10 0 6 -11 22 -24 36 -13 15 -41 60
-62 103 -22 42 -42 78 -47 79 -4 2 -5 7 -2 12 3 5 -1 14 -8 22 -21 21 -97 164
-97 182 0 9 -5 16 -12 16 -6 0 -9 3 -5 6 3 3 -3 22 -13 42 -35 68 -110 247
-110 262 0 9 -4 20 -9 26 -5 5 -19 38 -31 74 -12 36 -26 74 -31 85 -23 50
-147 495 -163 585 -3 19 -8 44 -10 55 -2 11 -11 54 -20 95 -18 88 -33 183 -41
260 -3 30 -10 96 -15 145 -18 161 -20 441 -5 650 43 614 194 1217 459 1838 56
132 206 432 273 547 98 167 158 265 169 275 19 16 114 165 106 165 -4 0 -2 4
4 8 5 4 23 25 39 47 17 22 34 43 40 47 6 4 6 8 1 8 -6 0 -1 7 10 15 10 8 16
15 11 15 -4 0 1 9 10 19 33 36 48 55 46 58 -2 2 5 11 15 21 9 10 33 38 52 62
19 23 41 49 48 56 6 7 12 15 12 17 0 5 25 35 85 103 11 12 45 50 75 85 30 34
81 88 113 120 31 31 57 60 57 63 0 9 133 140 240 236 52 47 102 92 110 100 8
9 40 36 70 60 30 25 61 51 68 58 8 7 30 25 50 40 21 15 39 29 42 32 3 3 25 21
50 40 25 19 50 38 55 43 6 4 35 25 65 47 30 22 60 43 65 48 62 51 444 292 600
377 95 52 341 176 396 199 24 11 67 29 94 42 174 78 525 203 740 263 61 17
124 35 140 40 218 67 741 156 1060 181 77 6 158 12 180 14 103 10 750 -4 895
-18z m-5554 -8385 c9 7 14 8 14 1 0 -6 -6 -12 -12 -15 -19 -6 -39 4 -31 16 5
8 8 7 11 -1 3 -10 7 -10 18 -1z m7544 -1151 c-19 -11 -39 -19 -45 -19 -5 0 6
8 25 19 19 11 40 19 45 19 6 0 -6 -8 -25 -19z m-5095 -40 c33 -16 56 -29 50
-29 -5 0 -37 13 -70 29 -33 15 -55 28 -50 28 6 0 37 -12 70 -28z m5015 5 c-14
-8 -29 -14 -35 -14 -5 0 1 6 15 14 14 8 30 14 35 14 6 0 -1 -6 -15 -14z
m-4920 -45 c8 -5 11 -10 5 -10 -5 0 -17 5 -25 10 -8 5 -10 10 -5 10 6 0 17 -5
25 -10z m123 -47 c37 -14 65 -28 63 -30 -4 -4 -158 56 -166 64 -6 7 12 1 103
-34z m4587 7 c-8 -5 -19 -10 -25 -10 -5 0 -3 5 5 10 8 5 20 10 25 10 6 0 3 -5
-5 -10z m-173 -66 c-3 -3 -12 -4 -19 -1 -8 3 -5 6 6 6 11 1 17 -2 13 -5z
m-4212 -14 c13 -6 15 -9 5 -9 -8 0 -22 4 -30 9 -18 12 -2 12 25 0z m4140 -10
c-27 -12 -43 -12 -25 0 8 5 22 9 30 9 10 0 8 -3 -5 -9z m-4080 -10 c13 -6 15
-9 5 -9 -8 0 -22 4 -30 9 -18 12 -2 12 25 0z m55 -20 c8 -5 11 -10 5 -10 -5 0
-17 5 -25 10 -8 5 -10 10 -5 10 6 0 17 -5 25 -10z m65 -20 c13 -6 15 -9 5 -9
-8 0 -22 4 -30 9 -18 12 -2 12 25 0z m3792 -6 c-3 -3 -12 -4 -19 -1 -8 3 -5 6
6 6 11 1 17 -2 13 -5z m-3722 -14 c13 -5 14 -9 5 -9 -8 0 -24 4 -35 9 -13 5
-14 9 -5 9 8 0 24 -4 35 -9z m3652 -6 c-3 -3 -12 -4 -19 -1 -8 3 -5 6 6 6 11
1 17 -2 13 -5z m-3582 -14 c13 -5 14 -9 5 -9 -8 0 -24 4 -35 9 -13 5 -14 9 -5
9 8 0 24 -4 35 -9z m3512 -6 c-3 -3 -12 -4 -19 -1 -8 3 -5 6 6 6 11 1 17 -2
13 -5z m-3442 -14 c13 -5 14 -9 5 -9 -8 0 -24 4 -35 9 -13 5 -14 9 -5 9 8 0
24 -4 35 -9z m3372 -6 c-3 -3 -12 -4 -19 -1 -8 3 -5 6 6 6 11 1 17 -2 13 -5z
m-3280 -20 c-3 -3 -12 -4 -19 -1 -8 3 -5 6 6 6 11 1 17 -2 13 -5z m3200 0 c-3
-3 -12 -4 -19 -1 -8 3 -5 6 6 6 11 1 17 -2 13 -5z m-40 -10 c-3 -3 -12 -4 -19
-1 -8 3 -5 6 6 6 11 1 17 -2 13 -5z m-3080 -10 c-3 -3 -12 -4 -19 -1 -8 3 -5
6 6 6 11 1 17 -2 13 -5z m3040 0 c-3 -3 -12 -4 -19 -1 -8 3 -5 6 6 6 11 1 17
-2 13 -5z m-2910 -30 c-3 -3 -12 -4 -19 -1 -8 3 -5 6 6 6 11 1 17 -2 13 -5z
m2740 -10 c-3 -3 -12 -4 -19 -1 -8 3 -5 6 6 6 11 1 17 -2 13 -5z m-50 -10 c-3
-3 -12 -4 -19 -1 -8 3 -5 6 6 6 11 1 17 -2 13 -5z"/>
<path d="M6097 11999 c-996 -39 -1975 -310 -2811 -779 -631 -353 -1164 -801
-1603 -1345 -562 -698 -911 -1539 -997 -2405 -19 -186 -31 -520 -20 -520 5 0
10 25 11 55 8 171 132 646 264 1005 53 145 60 163 85 217 13 30 24 56 24 58 0
18 196 414 249 503 17 29 31 55 31 57 0 4 43 75 70 115 5 8 37 58 70 110 33
52 64 100 70 107 5 7 15 24 22 38 6 14 14 25 18 25 4 0 22 24 40 53 19 28 37
54 41 57 3 3 17 21 30 40 36 52 81 112 104 136 11 11 34 38 50 59 28 36 43 54
115 140 14 16 57 63 95 105 39 41 86 93 106 115 19 22 55 58 80 79 24 22 106
98 182 170 76 72 143 133 149 135 6 2 27 19 46 37 20 19 39 34 43 34 4 0 14 6
21 13 7 6 38 32 68 57 30 25 57 48 58 53 2 4 9 7 15 7 7 0 28 14 47 30 19 16
41 30 48 30 6 0 12 4 12 8 0 4 13 16 30 25 16 10 35 23 42 30 22 22 106 77
117 77 6 0 11 4 11 9 0 5 14 14 30 21 17 7 30 16 30 20 0 4 14 13 30 20 17 7
30 16 30 20 0 4 13 13 30 20 17 7 30 16 30 21 0 5 7 9 16 9 9 0 28 8 42 18 15
11 56 34 92 53 36 18 67 36 70 39 12 13 303 160 316 160 3 0 52 22 108 49 136
65 164 77 211 91 22 7 50 19 63 26 12 8 22 12 22 8 0 -4 6 -2 13 3 6 5 32 15
57 22 25 7 54 17 65 22 47 20 363 122 400 130 22 4 58 13 80 19 62 17 115 30
170 40 28 6 68 14 90 19 201 45 440 86 650 111 233 27 807 39 1024 20 162 -14
305 -29 379 -40 141 -21 211 -33 282 -47 41 -8 102 -19 135 -24 33 -5 78 -13
100 -18 22 -6 58 -14 80 -20 22 -5 81 -18 130 -29 50 -11 166 -46 258 -76 92
-31 173 -56 180 -56 7 0 46 -13 87 -29 41 -15 93 -34 115 -41 37 -12 58 -21
168 -69 47 -21 107 -47 212 -93 101 -44 159 -72 165 -78 5 -5 190 -102 237
-124 13 -6 23 -14 23 -18 0 -5 7 -8 16 -8 8 0 35 -13 59 -30 24 -16 48 -30 54
-30 6 0 11 -4 11 -9 0 -5 14 -14 30 -21 17 -7 30 -16 30 -20 0 -4 19 -15 41
-26 23 -10 47 -23 53 -30 6 -6 52 -38 101 -71 137 -90 198 -134 250 -178 27
-22 54 -42 62 -45 7 -3 30 -20 51 -38 20 -17 75 -64 122 -103 221 -187 564
-526 630 -624 8 -12 27 -33 43 -47 15 -14 27 -30 27 -37 0 -6 4 -11 10 -11 5
0 28 -26 51 -57 23 -32 50 -66 61 -76 10 -10 18 -21 18 -25 0 -4 11 -20 25
-36 14 -16 25 -32 25 -35 0 -3 10 -17 23 -31 12 -14 59 -81 105 -150 45 -69
86 -130 91 -136 4 -5 14 -21 21 -35 7 -13 16 -26 20 -29 6 -5 51 -82 127 -215
207 -367 460 -990 498 -1230 8 -47 13 -66 14 -45 1 46 -41 314 -74 465 -161
749 -540 1483 -1086 2100 -130 147 -407 418 -549 536 -927 772 -2068 1240
-3330 1364 -137 13 -612 37 -665 33 -11 0 -109 -5 -218 -9z"/>
<path d="M4200 10699 c-184 -20 -501 -174 -789 -383 -245 -178 -505 -412 -642
-576 -30 -36 -57 -67 -60 -70 -4 -3 -37 -48 -75 -100 -101 -141 -172 -282
-240 -475 -63 -177 -160 -603 -193 -845 -6 -41 -13 -91 -15 -110 -30 -198 -43
-555 -27 -705 26 -237 74 -356 168 -416 91 -57 229 -31 353 69 115 92 321 307
595 622 161 184 408 465 415 470 3 3 41 46 85 95 44 50 87 97 96 105 10 8 36
38 59 65 55 65 290 305 405 413 145 136 314 267 525 407 81 53 212 194 247
265 156 315 47 624 -332 941 -221 185 -383 249 -575 228z"/>
<path d="M12022 7430 c0 -19 2 -27 5 -17 2 9 2 25 0 35 -3 9 -5 1 -5 -18z"/>
<path d="M12031 7344 c0 -11 3 -14 6 -6 3 7 2 16 -1 19 -3 4 -6 -2 -5 -13z"/>
<path d="M673 6830 c0 -41 2 -58 4 -37 2 20 2 54 0 75 -2 20 -4 3 -4 -38z"/>
<path d="M1580 4316 c0 -2 8 -10 18 -17 15 -13 16 -12 3 4 -13 16 -21 21 -21
13z"/>
<path d="M11431 3974 c-1 -6 5 -17 13 -23 11 -9 15 -8 20 5 4 11 2 15 -8 11
-8 -3 -17 -1 -20 6 -3 8 -5 8 -5 1z"/>
</g>
</svg>
